HIERARCHY
ROOT Hips
{
	OFFSET	0.000000	0.000000	0.000000
	CHANNELS 6 Xposition Yposition Zposition Zrotation Xrotation Yrotation
	JOINT LeftHip
	{
		OFFSET	4.740440	-3.195970	-0.322709
		CHANNELS 3 Zrotation Xrotation Yrotation
		JOINT LeftKnee
		{
			OFFSET	-1.605680	-15.592300	1.005510
			CHANNELS 3 Zrotation Xrotation Yrotation
			JOINT LeftAnkle
			{
				OFFSET	-0.632401	-16.421000	-1.413730
				CHANNELS 3 Zrotation Xrotation Yrotation
				End Site
				{
					OFFSET	0.008423	-2.933000	-1.776750
				}
			}
		}
	}
	JOINT RightHip
	{
		OFFSET	-4.740440	-3.195970	-0.322709
		CHANNELS 3 Zrotation Xrotation Yrotation
		JOINT RightKnee
		{
			OFFSET	1.605680	-15.592300	1.005510
			CHANNELS 3 Zrotation Xrotation Yrotation
			JOINT RightAnkle
			{
				OFFSET	0.632401	-16.421000	-1.413730
				CHANNELS 3 Zrotation Xrotation Yrotation
				End Site
				{
					OFFSET	-0.008423	-2.933000	-1.776750
				}
			}
		}
	}
	JOINT Chest
	{
		OFFSET	0.000000	3.468200	0.078401
		CHANNELS 3 Zrotation Xrotation Yrotation
		JOINT LeftCollar
		{
			OFFSET	3.857650	15.070700	-0.011583
			CHANNELS 3 Zrotation Xrotation Yrotation
			JOINT LeftShoulder
			{
				OFFSET	3.979720	-1.940530	-0.165223
				CHANNELS 3 Zrotation Xrotation Yrotation
				JOINT LeftElbow
				{
					OFFSET	0.615844	-10.986600	-0.673886
					CHANNELS 3 Zrotation Xrotation Yrotation
					JOINT LeftWrist
					{
						OFFSET	0.826843	-10.854500	1.034220
						CHANNELS 3 Zrotation Xrotation Yrotation
						End Site
						{
							OFFSET	-1.679080	-8.456540	0.936217
						}
					}
				}
			}
		}
		JOINT RightCollar
		{
			OFFSET	-3.857650	15.070700	-0.011583
			CHANNELS 3 Zrotation Xrotation Yrotation
			JOINT RightShoulder
			{
				OFFSET	-3.979720	-1.940530	-0.165223
				CHANNELS 3 Zrotation Xrotation Yrotation
				JOINT RightElbow
				{
					OFFSET	-0.615845	-10.986600	-0.673886
					CHANNELS 3 Zrotation Xrotation Yrotation
					JOINT RightWrist
					{
						OFFSET	-0.826843	-10.854500	1.034220
						CHANNELS 3 Zrotation Xrotation Yrotation
						End Site
						{
							OFFSET	1.679080	-8.456540	0.936217
						}
					}
				}
			}
		}
		JOINT Neck
		{
			OFFSET	0.000000	15.101400	0.055730
			CHANNELS 3 Zrotation Xrotation Yrotation
			JOINT Head
			{
				OFFSET	0.000000	4.185120	1.488260
				CHANNELS 3 Zrotation Xrotation Yrotation
				End Site
				{
					OFFSET	0.000000	7.773420	-0.106016
				}
			}
		}
	}
}
MOTION
Frames:     10
Frame Time: 0.016667
-0.906195	37.745247	-1.668682	4.602376	-6.840766	-13.208143	-4.850313	5.401764	-0.036989	-4.516068	2.048792	8.170799	5.338652	-3.023946	4.579749	-16.875696	-8.385239	-2.521968	-0.910992	15.719216	0.551182	9.564747	-2.066683	4.832492	-6.373460	1.844951	-3.118546	-3.632931	6.431146	2.306988	1.752610	-5.134199	2.119575	1.061845	2.262511	-5.721887	-4.733922	-4.960388	0.488721	0.745123	4.339448	2.410038	-0.804077	-4.913245	-0.812152	1.566901	-0.632473	1.656173	-1.021764	2.410014	6.250885	-1.059870	6.932504	2.517030	-1.544561	1.185363	16.380884	
-0.906034	37.744602	-1.666978	4.592114	-6.838577	-13.228189	-4.841669	5.400373	-0.018131	-4.524583	2.069336	8.166160	5.344524	-3.044935	4.586689	-16.862610	-8.390511	-2.503700	-0.910992	15.719216	0.551182	9.564747	-2.066683	4.832492	-6.390823	1.810633	-3.107554	-3.587206	6.458380	2.278242	1.732025	-5.127719	2.128978	1.074040	2.268944	-5.736920	-4.682220	-4.978629	0.528000	0.769871	4.373411	2.418222	-0.804077	-4.913245	-0.812152	1.566901	-0.632473	1.656173	-1.021764	2.410014	6.250885	-1.020310	6.957126	2.513944	-1.554450	1.197112	16.378000	
-0.905918	37.744137	-1.665757	4.584755	-6.837013	-13.242542	-4.835964	5.396712	-0.013829	-4.527286	2.078149	8.174026	5.346493	-3.051961	4.589028	-16.853233	-8.394274	-2.490618	-0.910992	15.719216	0.551182	9.564747	-2.066683	4.832492	-6.392503	1.798879	-3.096622	-3.571935	6.466795	2.268385	1.722980	-5.126325	2.113240	1.079346	2.272430	-5.723491	-4.628633	-4.990538	0.539979	0.777817	4.384308	2.420843	-0.804077	-4.913245	-0.812152	1.566901	-0.632473	1.656173	-1.021764	2.410014	6.250885	-1.003921	6.963034	2.514061	-1.557283	1.204814	16.365240	
-0.905803	37.743675	-1.664564	4.577564	-6.835481	-13.256571	-4.830462	5.392600	-0.011227	-4.535405	2.100408	8.180375	5.352204	-3.072357	4.595793	-16.844065	-8.397955	-2.477832	-0.910992	15.719216	0.551182	9.564747	-2.066683	4.832492	-6.394592	1.786843	-3.086075	-3.535608	6.462538	2.242122	1.695008	-5.110733	2.111409	1.091718	2.278983	-5.738832	-4.601745	-5.004878	0.580952	0.785995	4.395528	2.423545	-0.804077	-4.913245	-0.812152	1.566901	-0.632473	1.656173	-1.029534	2.423118	6.246382	-0.970976	6.960599	2.508813	-1.567601	1.225570	16.333796	
-0.905749	37.743462	-1.664003	4.574158	-6.834766	-13.263202	-4.828160	5.388975	-0.015648	-4.537994	2.109384	8.189795	5.354098	-3.079156	4.598054	-16.839725	-8.399686	-2.471785	-0.910992	15.719216	0.551182	9.564747	-2.066683	4.832492	-6.391329	1.786226	-3.079875	-3.526383	6.457486	2.232665	1.685427	-5.105820	2.106030	1.095951	2.281388	-5.739058	-4.573372	-5.012561	0.593265	0.785995	4.395528	2.423545	-0.804077	-4.913245	-0.812152	1.566901	-0.632473	1.656173	-1.032768	2.428568	6.244534	-0.962974	6.957512	2.506050	-1.574930	1.229178	16.334318	
-0.905604	37.742870	-1.662453	4.564808	-6.832770	-13.281418	-4.820813	5.384744	-0.008498	-4.546148	2.131591	8.195488	5.359833	-3.099617	4.604866	-16.827805	-8.404456	-2.455182	-0.910992	15.719216	0.551182	9.564747	-2.066683	4.832492	-6.382365	1.784512	-3.062848	-3.499747	6.442861	2.205333	1.657843	-5.091580	2.091203	1.107792	2.288178	-5.739173	-4.548721	-5.006224	0.635780	0.785995	4.395528	2.423545	-0.804077	-4.913245	-0.812152	1.566901	-0.632473	1.656173	-1.043321	2.446355	6.238438	-0.946677	6.963827	2.499443	-1.591463	1.223451	16.338800	
-0.905557	37.742676	-1.661978	4.561952	-6.832161	-13.286974	-4.818429	5.384117	-0.003929	-4.548892	2.138408	8.194664	5.361724	-3.106382	4.607111	-16.824167	-8.405907	-2.450119	-0.910992	15.719216	0.551182	9.564747	-2.066683	4.832492	-6.379628	1.783993	-3.057658	-3.491330	6.438224	2.196689	1.649110	-5.087083	2.086331	1.111538	2.290332	-5.739029	-4.532428	-4.986319	0.654930	0.785995	4.395528	2.423545	-0.804077	-4.913245	-0.812152	1.566901	-0.632473	1.656173	-1.047015	2.452556	6.236303	-0.941868	6.965945	2.497476	-1.596353	1.221505	16.340126	
-0.905557	37.742664	-1.661913	4.561615	-6.832086	-13.287767	-4.818156	5.384056	-0.003174	-4.557022	2.158021	8.190208	5.367335	-3.126417	4.613784	-16.823713	-8.406123	-2.449389	-0.910992	15.719216	0.551182	9.564747	-2.066683	4.832492	-6.379307	1.783911	-3.056908	-3.470978	6.430517	2.165007	1.645828	-5.072248	2.079108	1.104755	2.289872	-5.737573	-4.532420	-4.965785	0.699387	0.785995	4.395528	2.423545	-0.804077	-4.913245	-0.812152	1.562710	-0.624140	1.655023	-1.054452	2.463194	6.230722	-0.941242	6.966236	2.497202	-1.596990	1.221236	16.340319	
-0.905557	37.742664	-1.661913	4.561615	-6.832086	-13.287767	-4.818156	5.384056	-0.003174	-4.559731	2.164553	8.188724	5.369205	-3.133089	4.616009	-16.823713	-8.406123	-2.449389	-0.910992	15.719216	0.551182	9.564747	-2.066683	4.832492	-6.379307	1.783911	-3.056908	-3.465563	6.429434	2.153575	1.646836	-5.068502	2.078163	1.101801	2.289427	-5.737476	-4.527233	-4.931743	0.722717	0.785995	4.395528	2.423545	-0.804077	-4.913245	-0.812152	1.560457	-0.619651	1.654397	-1.059448	2.470587	6.227166	-0.941242	6.966236	2.497202	-1.596990	1.221236	16.340319	
-0.905708	37.743099	-1.660506	4.561615	-6.832086	-13.287767	-4.818156	5.384056	-0.003174	-4.567743	2.183897	8.184361	5.374733	-3.152851	4.622564	-16.824284	-8.400842	-2.448309	-0.909851	15.713984	0.549885	9.564747	-2.066683	4.832492	-6.379307	1.783911	-3.056908	-3.450256	6.426483	2.120850	1.650684	-5.057638	2.075114	1.092849	2.287994	-5.738087	-4.525493	-4.901886	0.769936	0.785995	4.395528	2.423545	-0.804077	-4.913245	-0.812152	1.555902	-0.610603	1.653152	-1.062376	2.473453	6.224068	-0.941242	6.966236	2.497202	-1.596990	1.221236	16.340319	
